# xmcd CD database file
#
# Track frame offsets:
#	150
#	36467
#	70192
#	102897
#	138977
#	166302
#	188170
#	218185
#	243180
#
# Disc length: 3606 seconds
#
# Revision: 0
# Processed by: cddbd v1.5.1PL0 Copyright (c) Steve Scherf et al.
# Submitted via: CDex 1.51
#
DISCID=7c0e1409
DTITLE=Spike Robinson - Harry Sweets Edison - Jusa Bit 'O' Blues
DYEAR=1988
DGENRE=Jazz
TTITLE0=The One I love
TTITLE1=Autumn Leaves
TTITLE2=Elaine
TTITLE3=Just in Time
TTITLE4='Tis Autumn
TTITLE5=Slow Boat to China
TTITLE6=Jusa Bit 'O' Blues
TTITLE7=Stars Fell on Alabama
TTITLE8=Time after Time
EXTD=YEAR: 1988
EXTT0=
EXTT1=
EXTT2=
EXTT3=
EXTT4=
EXTT5=
EXTT6=
EXTT7=
EXTT8=
PLAYORDER=
